<svg id="Layer_3" enable-background="new 0 0 64 64" height="512" viewBox="0 0 64 64" width="512" xmlns="http://www.w3.org/2000/svg"><g><path d="m24 49-5 3 13 6v-6z" fill="#c1c8d1"/><path d="m46 19 .103.308c1.256 3.77 1.897 7.718 1.897 11.692 0 8.837-7.163 16-16 16-8.837 0-16-7.163-16-16 0-3.974.641-7.922 1.897-11.692l.103-.308z" fill="#fadfb2"/><path d="m16 59 8.932-4.872c1.275-.695 2.068-2.032 2.068-3.484 0-1.053-.418-2.062-1.162-2.806l-.07-.07c-1.132-1.132-1.768-2.667-1.768-4.268 0-1.601.636-3.136 1.768-4.268l2.232-2.232-4-4-.586.586c-.905.905-2.133 1.414-3.414 1.414-1.281 0-2.509-.509-3.414-1.414l-.586-.586-.586.586c-.905.905-2.133 1.414-3.414 1.414-1.281 0-2.509-.509-3.414-1.414l-.586-.586-4 4 2.232 2.232c1.132 1.132 1.768 2.667 1.768 4.268 0 1.601-.636 3.136-1.768 4.268l-.07.07c-.744.744-1.162 1.753-1.162 2.806 0 1.452.793 2.789 2.068 3.484z" fill="#2b74ca"/><path d="m21.966 34.569c-.614.275-1.28.431-1.966.431-1.281 0-2.509-.509-3.414-1.414l-.586-.586-.586.586c-.905.905-2.133 1.414-3.414 1.414s-2.509-.509-3.414-1.414l-.586-.586-4 4 2.232 2.232c1.132 1.132 1.768 2.667 1.768 4.268s-.636 3.136-1.768 4.268l-.07.07c-.744.744-1.162 1.753-1.162 2.806 0 1.452.793 2.789 2.068 3.484l3.331 1.817c6.937-3.789 11.643-11.151 11.643-19.612 0-.595-.03-1.181-.076-1.764z" fill="#3d98f7"/><path d="m24.542 40.999c.297-.652.709-1.251 1.225-1.767l2.233-2.232-4-4-.586.586c-.905.905-2.133 1.414-3.414 1.414-1.281 0-2.509-.509-3.414-1.414l-.586-.586-.586.586c-.905.905-2.133 1.414-3.414 1.414-1.281 0-2.509-.509-3.414-1.414l-.586-.586-4 4 2.232 2.232c.516.516.929 1.116 1.226 1.768h-.001 17.087z" fill="#c66b60"/><path d="m46 19 4.419-3.683c1.002-.834 1.581-2.071 1.581-3.375 0-1.78-1.074-3.385-2.721-4.062l-11.505-4.738c-1.832-.754-3.793-1.142-5.774-1.142-1.981 0-3.942.388-5.774 1.142l-11.505 4.738c-1.647.678-2.721 2.282-2.721 4.062 0 1.304.579 2.54 1.581 3.375l4.419 3.683" fill="#a8b0bc"/><path d="m46 19v-3c0-.552-.448-1-1-1h-26c-.552 0-1 .448-1 1v3z" fill="#e7e4dd"/><path d="m46 19c-3.168 3.802-7.861 6-12.81 6h-2.38c-4.949 0-9.642-2.198-12.81-6z" fill="#758190"/><path d="m48 31h2c1.657 0 3-1.343 3-3 0-1.657-1.343-3-3-3h-2.49c.326 1.98.49 3.987.49 6z" fill="#fadfb2"/><path d="m16 31h-2c-1.657 0-3-1.343-3-3 0-1.657 1.343-3 3-3h2.49c-.326 1.98-.49 3.987-.49 6z" fill="#fadfb2"/><path d="m40 45v4l-8 3-5.037-1.889h.001c-.116-.856-.509-1.656-1.126-2.273l-.07-.07c-.78-.78-1.325-1.752-1.588-2.805h.001c2.312 1.297 4.979 2.037 7.819 2.037 2.889 0 5.6-.766 7.939-2.106z" fill="#f5cf88"/><path d="m40 49 5 3-13 6v-6z" fill="#a8b0bc"/><path d="m32 62h30v-4c0-3.314-2.686-6-6-6h-11l-13 6z" fill="#758190"/><path d="m32 62h-30v-4c0-2.418 1.43-4.502 3.491-5.452l-.003.002c.359.655.901 1.208 1.581 1.578l8.931 4.872 8.326-4.542 7.674 3.542z" fill="#8892a0"/><circle cx="32" cy="9" fill="#e7e4dd" r="3"/><path d="m47 52v3c0 .552.448 1 1 1h6c.552 0 1-.448 1-1v-3" fill="#c1c8d1"/><path d="m21.55 41c.32-1.506.492-3.066.492-4.667 0-.594-.03-1.181-.076-1.763-.614.274-1.28.43-1.966.43-1.281 0-2.509-.509-3.414-1.414l-.586-.586-.586.586c-.905.905-2.133 1.414-3.414 1.414s-2.509-.509-3.414-1.414l-.586-.586-4 4 2.232 2.232c.516.516.929 1.116 1.226 1.768h-.001z" fill="#e47c6e"/></g></svg>